<?xml version="1.0" encoding="UTF-8"?>
<svg id="Layer_1" data-name="Layer 1" xmlns="http://www.w3.org/2000/svg" viewBox="0 0 187.5 187.5">
  <defs>
    <style>
      .cls-1 {
        fill: #f97316;
      }

      .cls-2 {
        fill: #fff;
      }
    </style>
  </defs>
  <rect class="cls-1" x="6.25" y="6.25" width="175" height="175" rx="6.29" ry="6.29"/>
  <g>
    <path class="cls-2" d="M111.14,26.51c9.34,10.92,5.62,28.06-7.74,33.53-3.45,1.46-7.15,1.77-10.87,1.6-7.18-.4-15.81-.97-21.87,3.41-4.86,3.65-7.59,10.09-8.37,15.93-.43,4.03-.41,7.96-1.82,11.97-1.5,4.44-4.55,8.61-8.49,11.23-19.04,12.47-41.89-10.1-30.42-29.48,3.39-5.68,9.66-9.47,16.21-10.05,3.97-.44,7.58.22,11.49.73,9.24,1.46,18.86-1.98,22.14-11.45,1.72-4.74,1.31-9.66,1.78-14.52.33-3.62,1.25-7.3,3.14-10.49,7.46-12.81,25.41-13.82,34.78-2.48l.06.07Z"/>
    <path class="cls-2" d="M164.53,33.88c10.01,11.68,5.04,30.14-10,34.2-6.5,1.83-13.38.22-20,.69-4.78.3-9.48,1.24-12.7,4.9-2.98,3.44-4.54,8.51-5.33,13.07-.5,3.08-.61,6.11-1.16,9.16-.88,5.19-3.28,10.27-7.48,13.81-4.51,3.94-10.8,5.46-16.6,5.14-4.23-.16-9.01-.97-13.52-.07-6.99,1.12-12.89,6.53-14.9,13.25-1.45,4.39-1.38,8.73-2.07,13.11-.88,6.32-4.22,12.6-9.74,16.07-18.66,11.81-41.08-9.89-30.61-29.09,4.53-8.24,13.68-11.51,22.68-10.61,7.78.65,16.76,1.77,22.74-4.45,6.72-6.78,4.79-17.27,7.13-25.64,2.02-7.96,8.94-14.32,17.07-15.51,6.18-1.09,12.29.58,18.57.2,7.82-.31,14.11-4.97,16.17-12.6,1.32-4.43,1.3-9.12,1.95-13.62.79-6.55,3.98-12.99,9.66-16.62,8.75-6.03,21.46-3.66,28.08,4.56l.06.07Z"/>
    <path class="cls-2" d="M162.6,87.67c9.34,10.92,5.62,28.06-7.74,33.53-3.45,1.46-7.15,1.77-10.87,1.6-7.18-.4-15.81-.97-21.87,3.41-4.86,3.65-7.59,10.09-8.37,15.93-.43,4.03-.41,7.96-1.82,11.97-1.5,4.44-4.55,8.61-8.49,11.23-19.04,12.47-41.89-10.1-30.42-29.48,3.39-5.68,9.66-9.47,16.21-10.05,3.97-.44,7.58.22,11.49.73,9.24,1.46,18.86-1.98,22.14-11.45,1.72-4.74,1.31-9.66,1.78-14.52.33-3.62,1.25-7.3,3.14-10.49,7.46-12.81,25.41-13.82,34.78-2.48l.06.07Z"/>
  </g>
</svg>