<?xml version="1.0" encoding="UTF-8"?>
<svg id="Layer_1" data-name="Layer 1" xmlns="http://www.w3.org/2000/svg" viewBox="0 0 168.75 168.75">
  <defs>
    <style>
      .cls-1 {
        fill: #f97316;
      }
    </style>
  </defs>
  <path class="cls-1" d="M102.13,15.79c9.62,11.25,5.79,28.91-7.97,34.54-3.56,1.5-7.36,1.82-11.19,1.65-7.39-.42-16.29-1-22.53,3.52-5,3.76-7.82,10.39-8.62,16.41-.44,4.15-.42,8.2-1.87,12.33-1.54,4.57-4.69,8.87-8.75,11.57-19.61,12.84-43.16-10.4-31.34-30.37,3.49-5.85,9.95-9.76,16.69-10.35,4.09-.45,7.8.23,11.84.75,9.52,1.51,19.42-2.04,22.81-11.8,1.77-4.88,1.35-9.96,1.83-14.95.34-3.73,1.29-7.52,3.23-10.81,7.69-13.2,26.18-14.24,35.82-2.56l.06.07Z"/>
  <path class="cls-1" d="M157.13,23.38c10.31,12.04,5.19,31.05-10.31,35.23-6.7,1.88-13.78.22-20.61.71-4.92.31-9.76,1.28-13.08,5.05-3.07,3.55-4.67,8.77-5.49,13.47-.52,3.18-.63,6.3-1.19,9.44-.91,5.34-3.38,10.58-7.7,14.23-4.64,4.06-11.12,5.63-17.1,5.29-4.36-.17-9.28-1-13.93-.07-7.2,1.15-13.28,6.73-15.35,13.64-1.5,4.52-1.42,8.99-2.13,13.51-.9,6.51-4.34,12.98-10.04,16.56-19.22,12.17-42.32-10.18-31.53-29.96,4.67-8.49,14.09-11.85,23.36-10.93,8.01.67,17.27,1.82,23.42-4.59,6.93-6.99,4.93-17.79,7.35-26.41,2.08-8.2,9.2-14.76,17.58-15.98,6.37-1.12,12.66.59,19.13.2,8.06-.32,14.54-5.12,16.66-12.98,1.36-4.56,1.33-9.39,2.01-14.03.81-6.75,4.1-13.38,9.95-17.12,9.02-6.21,22.1-3.77,28.93,4.69l.06.07Z"/>
  <path class="cls-1" d="M155.14,78.8c9.62,11.25,5.79,28.91-7.97,34.54-3.56,1.5-7.36,1.82-11.19,1.65-7.39-.42-16.29-1-22.53,3.52-5,3.76-7.82,10.39-8.62,16.41-.44,4.15-.42,8.2-1.87,12.33-1.54,4.57-4.69,8.87-8.75,11.57-19.61,12.84-43.16-10.4-31.34-30.37,3.49-5.85,9.95-9.76,16.69-10.35,4.09-.45,7.8.23,11.84.75,9.52,1.51,19.42-2.04,22.81-11.8,1.77-4.88,1.35-9.96,1.83-14.95.34-3.73,1.29-7.52,3.23-10.81,7.69-13.2,26.18-14.24,35.82-2.56l.06.07Z"/>
</svg>