<?xml version="1.0" encoding="UTF-8"?>
<svg id="Layer_2" data-name="Layer 2" xmlns="http://www.w3.org/2000/svg" viewBox="0 0 1430.25 189.25">
  <defs>
    <style>
      .cls-1 {
        fill: #f97316;
      }

      .cls-2 {
        fill: #f2f2f2;
      }

      .cls-2, .cls-3 {
        font-family: Roboto-Medium, Roboto;
        font-size: 165.33px;
        font-weight: 500;
      }

      .cls-3 {
        fill: #666;
      }
    </style>
  </defs>
  <g id="Layer_1-2" data-name="Layer 1">
    <g>
      <g>
        <path class="cls-1" d="M106.73,16.27c10.67,12.48,6.43,32.07-8.85,38.32-3.95,1.66-8.17,2.02-12.42,1.83-8.2-.46-18.07-1.1-25,3.9-5.55,4.17-8.67,11.53-9.57,18.21-.49,4.61-.47,9.09-2.08,13.68-1.71,5.07-5.21,9.84-9.71,12.83-21.75,14.25-47.88-11.54-34.77-33.69,3.87-6.49,11.04-10.82,18.52-11.48,4.54-.5,8.66.26,13.13.83,10.56,1.67,21.55-2.27,25.31-13.09,1.96-5.41,1.5-11.05,2.03-16.59.38-4.13,1.43-8.35,3.59-11.99,8.53-14.64,29.05-15.8,39.74-2.83l.06.08Z"/>
        <path class="cls-1" d="M167.75,24.69c11.44,13.35,5.76,34.44-11.43,39.08-7.43,2.09-15.29.25-22.86.79-5.46.34-10.83,1.42-14.51,5.6-3.41,3.94-5.18,9.72-6.09,14.94-.57,3.52-.7,6.99-1.32,10.47-1,5.93-3.75,11.74-8.55,15.78-5.15,4.5-12.34,6.25-18.98,5.87-4.84-.18-10.3-1.11-15.45-.08-7.99,1.28-14.73,7.46-17.02,15.14-1.66,5.02-1.58,9.97-2.37,14.98-1,7.23-4.82,14.4-11.14,18.37-21.33,13.5-46.95-11.3-34.98-33.24,5.18-9.42,15.64-13.15,25.92-12.13,8.89.74,19.16,2.02,25.99-5.09,7.68-7.75,5.47-19.74,8.15-29.3,2.31-9.09,10.21-16.37,19.51-17.73,7.06-1.24,14.05.66,21.22.23,8.94-.36,16.13-5.68,18.48-14.4,1.51-5.06,1.48-10.42,2.23-15.57.9-7.49,4.55-14.84,11.04-19,10-6.89,24.52-4.18,32.09,5.21l.06.08Z"/>
        <path class="cls-1" d="M165.55,86.17c10.67,12.48,6.43,32.07-8.85,38.32-3.95,1.66-8.17,2.02-12.42,1.83-8.2-.46-18.07-1.1-25,3.9-5.55,4.17-8.67,11.53-9.57,18.21-.49,4.61-.47,9.09-2.08,13.68-1.71,5.07-5.21,9.84-9.71,12.83-21.75,14.25-47.88-11.54-34.77-33.69,3.87-6.49,11.04-10.82,18.52-11.48,4.54-.5,8.66.26,13.13.83,10.56,1.67,21.55-2.27,25.31-13.09,1.96-5.41,1.5-11.05,2.03-16.59.38-4.13,1.43-8.35,3.59-11.99,8.53-14.64,29.05-15.8,39.74-2.83l.06.08Z"/>
      </g>
      <text class="cls-2" transform="translate(218.75 141.43)"><tspan x="0" y="0">FlowRipple</tspan></text>
      <text class="cls-3" transform="translate(1056.25 144.45)"><tspan x="0" y="0">Docs</tspan></text>
    </g>
  </g>
</svg>